# xmcd
#
# Track frame offsets:
#	150
#	14648
#	28198
#	44555
#	63104
#	73934
#	91069
#	105432
#	117210
#	138445
#	157151
#
# Disc length: 2339 seconds
#
# Revision: 0
# Processed by: cddbd v1.5PL3 Copyright (c) Steve Scherf et al.
# Submitted via: dBpowerAMP V4.0
#
DISCID=9709210b
DTITLE=West Coast Rollers - Fifty More Miles
DYEAR=2004
DGENRE=Blues
TTITLE0=Before The Nite
TTITLE1=Strollin' With You
TTITLE2=Me and My Chevrolet
TTITLE3=Cherry Bomb Dream
TTITLE4=Twang Ten Cowboy
TTITLE5=Fifty More Miles
TTITLE6=Gato Diablo
TTITLE7=Stirrin' It Up
TTITLE8=Shoe Stringin'
TTITLE9=Lazy Bones
TTITLE10=Get To My Baby
EXTD=Silicon Valley-area band, www.westcoastrollers.com
EXTT0=
EXTT1=
EXTT2=
EXTT3=
EXTT4=
EXTT5=
EXTT6=
EXTT7=
EXTT8=
EXTT9=
EXTT10=
PLAYORDER=
